<svg width="57" height="32" viewBox="0 0 57 32" fill="none" xmlns="http://www.w3.org/2000/svg">
<path d="M34.5 22.5C34.8978 22.5 35.2794 22.342 35.5607 22.0607C35.842 21.7794 36 21.3978 36 21C36 20.6022 35.842 20.2206 35.5607 19.9393C35.2794 19.658 34.8978 19.5 34.5 19.5C34.1022 19.5 33.7206 19.658 33.4393 19.9393C33.158 20.2206 33 20.6022 33 21C33 21.3978 33.158 21.7794 33.4393 22.0607C33.7206 22.342 34.1022 22.5 34.5 22.5ZM36 13.5H33.5V16H37.96L36 13.5ZM22.5 22.5C22.8978 22.5 23.2794 22.342 23.5607 22.0607C23.842 21.7794 24 21.3978 24 21C24 20.6022 23.842 20.2206 23.5607 19.9393C23.2794 19.658 22.8978 19.5 22.5 19.5C22.1022 19.5 21.7206 19.658 21.4393 19.9393C21.158 20.2206 21 20.6022 21 21C21 21.3978 21.158 21.7794 21.4393 22.0607C21.7206 22.342 22.1022 22.5 22.5 22.5ZM36.5 12L39.5 16V21H37.5C37.5 21.7956 37.1839 22.5587 36.6213 23.1213C36.0587 23.6839 35.2956 24 34.5 24C33.7043 24 32.9413 23.6839 32.3787 23.1213C31.8161 22.5587 31.5 21.7956 31.5 21H25.5C25.5 21.7956 25.1839 22.5587 24.6213 23.1213C24.0587 23.6839 23.2956 24 22.5 24C21.7043 24 20.9413 23.6839 20.3787 23.1213C19.8161 22.5587 19.5 21.7956 19.5 21H17.5V10C17.5 8.89 18.39 8 19.5 8H33.5V12H36.5ZM24.5 10V13H21.5V15H24.5V18H26.5V15H29.5V13H26.5V10H24.5Z" fill="#293231"/>
</svg>
