<svg width="24" height="25" viewBox="0 0 24 25" fill="none" xmlns="http://www.w3.org/2000/svg">
<path d="M15.419 18.5682C15.4928 18.6813 15.5347 18.8123 15.5402 18.9473C15.5457 19.0823 15.5146 19.2163 15.4503 19.3351C15.3859 19.4539 15.2907 19.5531 15.1746 19.6222C15.0586 19.6913 14.926 19.7279 14.7909 19.7279H0.959015C0.823917 19.7279 0.691332 19.6913 0.575268 19.6222C0.459204 19.5531 0.36397 19.4539 0.299628 19.3351C0.235287 19.2163 0.204226 19.0823 0.209729 18.9473C0.215232 18.8123 0.257093 18.6813 0.33089 18.5682C1.38661 16.9431 2.93948 15.703 4.75776 15.0329C3.75258 14.3637 2.98943 13.3888 2.58117 12.2523C2.17291 11.1158 2.14122 9.87815 2.49079 8.72228C2.84035 7.56641 3.55261 6.55372 4.52224 5.83396C5.49187 5.1142 6.66738 4.72559 7.87495 4.72559C9.08252 4.72559 10.258 5.1142 11.2277 5.83396C12.1973 6.55372 12.9096 7.56641 13.2591 8.72228C13.6087 9.87815 13.577 11.1158 13.1687 12.2523C12.7605 13.3888 11.9973 14.3637 10.9921 15.0329C12.8104 15.703 14.3633 16.9431 15.419 18.5682ZM23.6606 18.5541C22.6046 16.9359 21.0552 15.7011 19.2421 15.0329C20.4288 14.2335 21.2663 13.012 21.5841 11.6169C21.9019 10.2219 21.6761 8.75816 20.9527 7.52371C20.2293 6.28925 19.0627 5.37684 17.6903 4.97221C16.318 4.56757 14.843 4.70113 13.5656 5.34568C13.5167 5.3709 13.474 5.40655 13.4405 5.45011C13.407 5.49366 13.3834 5.54406 13.3715 5.59773C13.3596 5.6514 13.3597 5.70703 13.3716 5.76068C13.3836 5.81433 13.4073 5.86468 13.4409 5.90818C14.3907 7.093 14.9362 8.55084 14.9975 10.0682C15.0587 11.5855 14.6325 13.0825 13.7812 14.3401C13.7262 14.4222 13.7058 14.5228 13.7246 14.6199C13.7434 14.717 13.7998 14.8028 13.8815 14.8585C14.9914 15.6331 15.9416 16.6145 16.68 17.7488C16.9777 18.2049 17.0994 18.7537 17.0221 19.2929C17.0134 19.3465 17.0165 19.4014 17.0311 19.4537C17.0457 19.506 17.0715 19.5546 17.1068 19.596C17.142 19.6373 17.1858 19.6705 17.2351 19.6933C17.2844 19.7161 17.3381 19.7279 17.3925 19.7279H23.0456C23.2107 19.7279 23.3713 19.6735 23.5023 19.5729C23.6333 19.4724 23.7275 19.3315 23.7703 19.1719C23.7963 19.067 23.8 18.9578 23.7811 18.8514C23.7623 18.7449 23.7212 18.6436 23.6606 18.5541Z" fill="#433E3F"/>
</svg>
